<svg xmlns="http://www.w3.org/2000/svg" width="64" height="64" viewBox="0 0 64 64" fill="none">

<circle cx="32" cy="32" r="24" fill="#FFF0E8" stroke="#FFD6A5" stroke-width="2.5"/>
<ellipse cx="32" cy="36" rx="15" ry="11" fill="#FF6B6B" stroke="#6E4E42" stroke-width="2.2"/>
<circle cx="27" cy="34" r="2" fill="#FFFFFF"/><circle cx="37" cy="34" r="2" fill="#FFFFFF"/>
<circle cx="27" cy="34" r="1" fill="#6E4E42"/><circle cx="37" cy="34" r="1" fill="#6E4E42"/>
<path d="M28 40c2 2 6 2 8 0" stroke="#6E4E42" stroke-width="2" stroke-linecap="round"/>
<path d="M30 21c1-3 4-4 7-4 2 0 4 .4 5.5 1.5-2.5 1.2-4 3.5-4.5 5.8" fill="#BEECC4" stroke="#6E4E42" stroke-width="2"/>
<path d="M31 22c-.4-3-2.5-4.7-6.5-5.7 0 2.5.5 4.4 2.2 6.3" fill="#BEECC4" stroke="#6E4E42" stroke-width="2"/>

</svg>